# xmcd
#
# Track frame offsets: 
#        150
#        18030
#        38593
#        52123
#        70974
#        84571
#        101159
#        114775
#        133852
#        153186
#        165623
#        179539
#        199684
#        215702
#        229217
#        240397
#        263502
#        291073
#        307187
#        323243
#
# Disc length: 4498 seconds
#
# Revision: 0
# Processed by: cddbd v1.4b42PL0 Copyright (c) Steve Scherf et al.
# Submitted via: ExactAudioCopy v0.90a11
#
DISCID=16119014
DTITLE=Various Artist - The ugly bluesmen I
DYEAR=1900
DGENRE=
TTITLE0=Nashville Fats - You Reap Just What you Sow
TTITLE1=Bill House - Foolish Love
TTITLE2="Juli" - I Smell Love
TTITLE3=Victor Sirker - Blues On The Bayou
TTITLE4=Eva Gold - Dust
TTITLE5=Robert Farrel - SteamRoller
TTITLE6=The Oscar Jordan Band - Hey Now Baby!
TTITLE7=Lightning Red - Big Time
TTITLE8=Frank B. Montoya - Don`t Hurt Me
TTITLE9=Herd of Blues - Lovesick
TTITLE10=GCBS Blues in the Schools Arti - Cincinnati Shuffle
TTITLE11=Matt Thorpe - Gullible Blues
TTITLE12=Nashville Fats - One By One
TTITLE13=Dan Electro - If It`s Swinging
TTITLE14=MR. DOWNTIME aka Dan Treanor - Boogie Woogie Roadhouse Band
TTITLE15=John Winter - Nighthawk
TTITLE16=The Lady A Blues Band - Blues Train
TTITLE17=Honolulu Slim and The Diamonds - Put My Wood In Your Oven
TTITLE18=The Lady A Blues Band - Don`t Blame Me
TTITLE19=Rooster Quantrell - Old Man Blues
EXTD=
EXTT0=
EXTT1=
EXTT2=
EXTT3=
EXTT4=
EXTT5=
EXTT6=
EXTT7=
EXTT8=
EXTT9=
EXTT10=
EXTT11=
EXTT12=
EXTT13=
EXTT14=
EXTT15=
EXTT16=
EXTT17=
EXTT18=
EXTT19=
PLAYORDER=
